<?xml version="1.0" encoding="utf-8"?>
<!-- Generator: Adobe Illustrator 28.4.1, SVG Export Plug-In . SVG Version: 6.00 Build 0)  -->
<svg version="1.1" id="Layer_1" xmlns="http://www.w3.org/2000/svg" xmlns:xlink="http://www.w3.org/1999/xlink" x="0px" y="0px"
	 viewBox="0 0 184 32" style="enable-background:new 0 0 184 32;" xml:space="preserve">
<style type="text/css">
	.st0{fill:#0046FF;}
</style>
<path class="st0" d="M32,15.3c0,0.2,0,0.5,0,0.7v0c0,7.4-5,13.6-11.9,15.5c-1.1,0.3-2.3,0.5-3.4,0.5c-0.3,0-0.7,0-1,0
	C7.6,31.8,1,25.7,0.1,17.8c0-0.3-0.1-0.7-0.1-1c0-0.2,0-0.5,0-0.7v0C0,7.2,7.2,0,16,0c7.5,0,13.9,5.2,15.6,12.2
	C31.8,13.2,31.9,14.3,32,15.3z M24.4,8c-0.9-0.3-1.6-0.5-1.8-0.9c-0.1-0.2,0-0.4,0.1-0.5c0.1-0.1,0.3-0.1,0.6,0
	C23.6,6.8,24,7,24.3,7c0.9,0.1,0.7-1.3-0.9-2.1c-1-0.5-1.9-0.7-3.2-0.6c-0.5,0-0.9,0-1.3-0.1c-0.6-0.1-1.3-0.3-1.8-0.5
	c-0.4-0.1-0.6-0.1-0.7,0.1c-0.1,0.1-0.1,0.3,0.2,0.6C17,5,17.8,5.7,17.4,7.2C16.5,11,17.7,12.7,19,13c0.7,0.2,1.4,0,1.8-0.4
	c0.4-0.4,0.6-1.1,0.2-1.7c-0.6-0.9-0.8-1.7-0.3-2c0.5-0.3,1.1,0,1.6,1.1c0.8,1.8,1.9,2.3,2.9,1C26.1,9.9,26.1,8.4,24.4,8z
	 M21.5,17.8c-4.3-2.6-6.5-3.6-8.2-4.9c-2.9-2.1-3.4-3.6-3.5-4.7c-0.2-1.9,1.3-3.7,2.8-4.5c0.1-0.1,0.3-0.2,0.2-0.4
	c-0.1-0.2-0.4-0.2-0.5-0.2c-3.3,0.7-6.5,3.6-6,7.5c0.2,1.5,1.2,4.2,6.3,7.1c1.7,1,3.2,1.8,5.6,3.1c3.2,1.8,4.7,4.2,2.7,6.7
	c-0.1,0.2-0.3,0.4-0.2,0.5c0.1,0.2,0.3,0.2,0.5,0.1c1.5-0.7,2.8-1.7,3.4-2.7C25.6,23.9,26.1,20.6,21.5,17.8z M16.5,28.2
	c-0.4-0.1-1-0.3-1.5-0.5c-0.6-0.3-1.2-0.6-1.4-0.8c-0.2-0.2-0.2-0.3-0.1-0.5c0.7-1.1,0.9-1.5,1.1-2c0.4-1.1,0-1.2-0.7-1
	c-0.7,0.2-1.3,0.4-1.8,0.6c-0.6,0.2-1,0.4-1.3,0.3c-0.2-0.1-0.3-0.5-0.4-1.2c-0.1-0.5-0.2-1.1-0.3-1.6c-0.3-1.1-0.7-0.9-1.1-0.4
	c-0.5,0.6-0.7,1.3-0.9,1.7C8.1,22.9,8,23,7.9,23c-0.3-0.1-0.8-0.6-1.3-1.2c-0.7-0.9-1-1.6-1.4-1.6c-0.8-0.1-0.4,1.7,0.3,3.3
	c0.7,1.5,1.8,2.9,3.7,4.1c2.1,1.3,5.2,1.8,7.1,1.6C16.9,29,17.1,28.4,16.5,28.2z"/>
<path class="st0" d="M40.8,17.8c0.3,0,0.6-0.1,0.9-0.3c0.4-0.1,0.7-0.3,1.1-0.6c0.4-0.2,0.8-0.5,1.2-0.7c1.3-0.9,2.4-2,3.4-3.3
	c0.4,0.5,0.8,1,1.4,1.5c0.5,0.5,1.1,0.9,1.7,1.3c1.1,0.7,1.9,1.1,2.5,1.2c0.6,0.1,1,0,1.1-0.3l1.1-2c-0.7-0.3-1.4-0.6-2.2-0.9
	c-0.7-0.4-1.4-0.8-1.9-1.3c-0.6-0.5-1-1.1-1.4-1.7c-0.4-0.7-0.5-1.4-0.5-2.2V5.2H45c-0.2,0-0.3,0.1-0.4,0.2c-0.1,0.2,0,0.3,0.1,0.5
	c0.2,0.3,0.4,0.5,0.4,0.8c0.1,0.3,0.1,0.6,0.1,1v1c0,0.8-0.2,1.5-0.5,2.2c-0.3,0.7-0.8,1.3-1.3,1.8c-0.6,0.6-1.2,1-1.9,1.5
	c-0.7,0.4-1.5,0.8-2.3,1.1l1.1,2.2C40.4,17.8,40.6,17.8,40.8,17.8z M47.5,24.8c-0.2-0.2-0.4-0.6-0.4-1.2v-4.6H43
	c-0.2,0-0.3,0.1-0.4,0.2c-0.1,0.2,0,0.3,0.1,0.5c0.2,0.3,0.4,0.5,0.4,0.8c0.1,0.2,0.1,0.6,0.1,1V24c0,0.8,0.1,1.4,0.3,1.9
	c0.2,0.5,0.5,0.9,0.9,1.2c0.4,0.3,0.9,0.5,1.5,0.6c0.6,0.1,1.3,0.2,2.1,0.2h13.3v-2.8H48.7C48.2,25.1,47.8,25,47.5,24.8z M61.1,20.4
	V4.8h-4.2c-0.2,0-0.3,0.1-0.4,0.2c-0.1,0.1,0,0.3,0.1,0.5C56.8,5.7,57,6,57.1,6.3c0.1,0.3,0.1,0.6,0.1,1.1v13H61.1z M67.7,25.9
	c0.2,0.5,0.5,0.9,0.9,1.2c0.4,0.3,0.9,0.5,1.5,0.6c0.6,0.1,1.3,0.2,2.1,0.2h13.1v-2.8H72.9c-0.6,0-1-0.1-1.2-0.3
	c-0.3-0.2-0.4-0.6-0.4-1.2v-3.5h-4.2c-0.2,0-0.3,0.1-0.4,0.2c-0.1,0.1,0,0.3,0.1,0.5c0.2,0.2,0.3,0.4,0.4,0.6
	c0.1,0.2,0.1,0.4,0.1,0.7V24C67.4,24.8,67.5,25.4,67.7,25.9z M69.5,10.6c0.5-0.6,1.1-0.9,2-0.9c0.9,0,1.5,0.3,2,0.9
	c0.5,0.6,0.7,1.3,0.7,2.1c0,0.8-0.2,1.5-0.7,2.1c-0.5,0.6-1.1,0.9-2,0.9c-0.9,0-1.5-0.3-2-0.9c-0.5-0.6-0.7-1.3-0.7-2.1
	C68.8,11.9,69,11.2,69.5,10.6z M65.4,11.1c-0.2,0.5-0.3,1.1-0.3,1.8c0,0.8,0.1,1.5,0.4,2.2c0.3,0.7,0.7,1.3,1.2,1.8
	c0.5,0.5,1.2,0.9,2,1.2c0.8,0.3,1.7,0.4,2.7,0.4c1,0,1.9-0.1,2.7-0.4c0.8-0.3,1.5-0.7,2-1.2c0.5-0.5,1-1.1,1.2-1.8
	c0.3-0.7,0.4-1.4,0.4-2.2c0-0.6-0.1-1.2-0.3-1.8c-0.2-0.5-0.5-1-0.9-1.5h2.6V6.9h-5.6V4.1h-4.2c-0.2,0-0.3,0.1-0.4,0.2
	c-0.1,0.1,0,0.3,0.1,0.5c0.2,0.3,0.4,0.6,0.4,0.8c0.1,0.3,0.1,0.6,0.1,1v0.3h-6v2.8h2.6C65.9,10.1,65.6,10.6,65.4,11.1z M85.1,4.8
	h-4.2c-0.2,0-0.3,0.1-0.4,0.2c-0.1,0.1,0,0.3,0.1,0.5C80.8,5.8,81,6,81.1,6.3c0.1,0.3,0.1,0.6,0.1,1v13.4h3.9v-7.3h2.8v-2.8h-2.8
	V4.8z M104.3,11.6c-0.8,0.4-2.1,0.7-4,0.7c-1.9,0-3.2-0.2-4-0.7c-0.8-0.4-1.2-1-1.2-1.8c0-0.8,0.4-1.4,1.2-1.8
	c0.8-0.5,2.1-0.7,4-0.7c1.9,0,3.2,0.2,4,0.7c0.8,0.5,1.2,1.1,1.2,1.8C105.5,10.5,105.1,11.1,104.3,11.6z M107.2,6
	c-0.7-0.5-1.7-0.8-2.8-1.1c-1.1-0.2-2.5-0.4-4-0.4c-1.5,0-2.9,0.1-4,0.4c-1.1,0.3-2.1,0.6-2.8,1.1c-0.7,0.5-1.3,1-1.7,1.7
	c-0.4,0.6-0.5,1.3-0.5,2.1c0,0.8,0.2,1.4,0.5,2.1c0.4,0.6,0.9,1.2,1.7,1.6c0.7,0.5,1.7,0.8,2.8,1.1c1.1,0.3,2.5,0.4,4,0.4
	c1.5,0,2.9-0.1,4-0.4c1.1-0.3,2.1-0.6,2.8-1.1c0.7-0.5,1.3-1,1.7-1.6c0.4-0.6,0.5-1.3,0.5-2.1c0-0.8-0.2-1.5-0.5-2.1
	C108.5,7,107.9,6.4,107.2,6z M109.7,25.1H96.6c-0.4,0-0.7-0.1-0.9-0.2c-0.2-0.1-0.3-0.4-0.3-0.9v-3.7h-4.2c-0.2,0-0.3,0.1-0.4,0.2
	c-0.1,0.1,0,0.3,0.1,0.5c0.2,0.2,0.3,0.4,0.4,0.6c0.1,0.2,0.1,0.4,0.1,0.7v2.4c0,0.6,0.1,1.2,0.3,1.6c0.2,0.4,0.4,0.7,0.8,1
	c0.4,0.2,0.8,0.4,1.4,0.5c0.5,0.1,1.2,0.1,1.9,0.1h13.8V25.1z M112.1,16.1H88.6v2.7h23.5V16.1z M117.7,11.2c0.1-0.3,0.2-0.6,0.4-0.9
	c0.2-0.3,0.4-0.5,0.7-0.6c0.3-0.2,0.6-0.2,1-0.2c0.4,0,0.7,0.1,1,0.2c0.3,0.2,0.5,0.4,0.7,0.6c0.2,0.3,0.3,0.6,0.4,0.9
	c0.1,0.3,0.1,0.7,0.1,1c0,0.3,0,0.7-0.1,1c-0.1,0.3-0.2,0.6-0.4,0.9c-0.2,0.3-0.4,0.5-0.7,0.6c-0.3,0.1-0.6,0.2-1,0.2
	c-0.4,0-0.7-0.1-1-0.2c-0.3-0.1-0.5-0.4-0.7-0.6c-0.2-0.3-0.3-0.5-0.4-0.9c-0.1-0.3-0.1-0.6-0.1-1C117.6,11.9,117.6,11.6,117.7,11.2
	z M114.4,10.7c-0.2,0.5-0.2,1-0.2,1.5c0,0.8,0.1,1.5,0.4,2.2c0.3,0.7,0.6,1.2,1.1,1.7c0.5,0.5,1.1,0.8,1.8,1.1
	c0.7,0.3,1.5,0.4,2.5,0.4c0.9,0,1.7-0.1,2.5-0.4c0.7-0.3,1.3-0.6,1.8-1.1c0.5-0.5,0.9-1,1.1-1.7c0.3-0.7,0.4-1.4,0.4-2.2
	c0-0.5-0.1-1-0.2-1.5c-0.2-0.5-0.4-0.9-0.7-1.3h1.7V6.7H122V4h-4.1c-0.2,0-0.3,0.1-0.4,0.2c-0.1,0.2,0,0.3,0.1,0.5
	c0.2,0.3,0.4,0.5,0.4,0.8c0,0.3,0.1,0.6,0.1,1.1v0.1h-5.1v2.8h1.9C114.7,9.8,114.5,10.2,114.4,10.7z M127,4.9
	c-0.2,0-0.3,0.1-0.3,0.2c-0.1,0.1,0,0.3,0.1,0.5c0.1,0.2,0.3,0.4,0.4,0.6c0.1,0.2,0.1,0.5,0.1,1v9.9h3.5v-4.7h1.7v5.3h3.5V4.8h-3.5
	v4.8h-1.7V4.9H127z M122.4,22.5c0.2-0.3,0.5-0.6,0.8-0.8c0.4-0.2,0.9-0.4,1.5-0.5c0.6-0.1,1.4-0.2,2.3-0.2c0.9,0,1.7,0,2.3,0.2
	c0.6,0.1,1.1,0.3,1.5,0.5c0.4,0.2,0.7,0.5,0.8,0.8c0.2,0.3,0.3,0.7,0.3,1.1c0,0.4-0.1,0.7-0.3,1c-0.2,0.3-0.4,0.6-0.8,0.8
	c-0.4,0.2-0.9,0.4-1.5,0.5c-0.6,0.1-1.4,0.2-2.3,0.2c-0.9,0-1.7-0.1-2.3-0.2c-0.6-0.1-1.1-0.3-1.5-0.5c-0.4-0.2-0.7-0.5-0.8-0.8
	c-0.2-0.3-0.3-0.7-0.3-1C122.1,23.1,122.2,22.8,122.4,22.5z M118.2,23.5c0,0.8,0.2,1.5,0.6,2.2c0.4,0.6,0.9,1.2,1.7,1.7
	c0.8,0.5,1.7,0.8,2.8,1.1c1.1,0.3,2.4,0.4,3.9,0.4c1.4,0,2.7-0.1,3.8-0.4c1.1-0.3,2-0.6,2.8-1.1c0.7-0.5,1.3-1,1.7-1.7
	c0.4-0.7,0.6-1.4,0.6-2.2c0-1.6-0.8-2.9-2.3-3.8c-1.5-0.9-3.7-1.4-6.6-1.4c-2.9,0-5.2,0.5-6.7,1.4C118.9,20.6,118.2,21.9,118.2,23.5
	z"/>
<path class="st0" d="M176.9,24v-4.7c0-0.5-0.1-0.8-0.2-1.1c-0.1-0.3-0.3-0.6-0.5-0.9c-0.2-0.2-0.2-0.4-0.1-0.5
	c0.1-0.2,0.2-0.3,0.4-0.3h5v8.1c0,0.4-0.2,0.9-0.7,1.3c-0.5,0.4-1.1,0.8-1.9,1.1c-0.8,0.3-1.7,0.5-2.7,0.7c-1,0.2-2,0.3-3.1,0.3
	c-3.8,0-6.7-1-8.6-3c-1.9-2-2.8-4.9-2.8-8.7c0-1.6,0.2-3.2,0.6-4.6c0.4-1.4,1.1-2.6,2-3.6c0.9-1,2-1.8,3.4-2.4
	c1.4-0.6,3-0.9,4.9-0.9c1.4,0,2.7,0.1,4,0.4c1.3,0.3,2.5,0.6,3.5,1.1v3.4c0,0.3-0.1,0.5-0.3,0.5c-0.2,0.1-0.4,0-0.6-0.2
	c-0.8-0.6-1.8-1.1-2.9-1.5c-1.1-0.4-2.2-0.6-3.4-0.6c-1.3,0-2.3,0.2-3.2,0.6c-0.9,0.4-1.6,1-2.1,1.7c-0.5,0.7-0.9,1.6-1.2,2.6
	c-0.2,1-0.3,2.1-0.3,3.2c0,2.7,0.5,4.8,1.6,6.2c1.1,1.5,2.9,2.2,5.3,2.2c0.7,0,1.4-0.1,2.1-0.2C175.7,24.4,176.3,24.2,176.9,24z"/>
<path class="st0" d="M143.7,5.4h9c1.2,0,2.2,0.2,3.1,0.5c0.9,0.3,1.7,0.8,2.3,1.4c0.6,0.6,1.1,1.3,1.4,2.2c0.3,0.9,0.5,1.8,0.5,2.8
	c0,1-0.2,2-0.5,2.9c-0.3,0.8-0.8,1.6-1.4,2.2c-0.6,0.6-1.4,1.1-2.3,1.4c-0.9,0.3-1.9,0.5-3.1,0.5h-4v8.1h-4.6V8.3
	c0-0.5-0.1-0.9-0.2-1.2c-0.1-0.3-0.3-0.6-0.5-0.9c-0.2-0.2-0.2-0.4-0.1-0.6C143.3,5.5,143.4,5.4,143.7,5.4z M148.7,16h2.8
	c1.2,0,2.2-0.3,2.8-0.9c0.7-0.6,1-1.5,1-2.8s-0.3-2.2-1-2.8c-0.7-0.6-1.6-0.9-2.8-0.9h-2.8V16z"/>
</svg>
